custom-analysis
version=1
nRows=7
nColumns=98
inDegrees=no

This file contains tibia displacement and acting force.

Units are S.I. units (seconds, meters, Newtons, ...)
Angles are in degrees.

endheader
time	APT	SIT	knee_angle	aACL_R_force	pACL_R_force	aPCL_R_force	pPCL_R_force	aMCL_R_force	mMCL_R_force	pMCL_R_force	aLCL_R_force	mLCL_R_force	pLCL_R_force	aPCL_L_force	pPCL_L_force	aMCL_L_force	aLCL_L_force	aACL_R_length	pACL_R_length	aPCL_R_length	pPCL_R_length	aMCL_R_length	mMCL_R_length	pMCL_R_length	aLCL_R_length	mLCL_R_length	pLCL_R_length	aPCL_L_length	pPCL_L_length	aMCL_L_length	aLCL_L_length	aACL_R_strain	pACL_R_strain	aPCL_R_strain	pPCL_R_strain	aMCL_R_strain	mMCL_R_strain	pMCL_R_strain	aLCL_R_strain	mLCL_R_strain	pLCL_R_strain	aPCL_L_strain	pPCL_L_strain	aMCL_L_strain	aLCL_L_strain	femur_lat_meniscii_r.femur_lat_r.force.X	femur_lat_meniscii_r.femur_lat_r.force.Y	femur_lat_meniscii_r.femur_lat_r.force.Z	femur_lat_meniscii_r.femur_lat_r.torque.X	femur_lat_meniscii_r.femur_lat_r.torque.Y	femur_lat_meniscii_r.femur_lat_r.torque.Z	femur_lat_meniscii_r.meniscus_lat_r.force.X	femur_lat_meniscii_r.meniscus_lat_r.force.Y	femur_lat_meniscii_r.meniscus_lat_r.force.Z	femur_lat_meniscii_r.meniscus_lat_r.torque.X	femur_lat_meniscii_r.meniscus_lat_r.torque.Y	femur_lat_meniscii_r.meniscus_lat_r.torque.Z	femur_med_meniscii_r.femur_med_r.force.X	femur_med_meniscii_r.femur_med_r.force.Y	femur_med_meniscii_r.femur_med_r.force.Z	femur_med_meniscii_r.femur_med_r.torque.X	femur_med_meniscii_r.femur_med_r.torque.Y	femur_med_meniscii_r.femur_med_r.torque.Z	femur_med_meniscii_r.meniscus_med_r.force.X	femur_med_meniscii_r.meniscus_med_r.force.Y	femur_med_meniscii_r.meniscus_med_r.force.Z	femur_med_meniscii_r.meniscus_med_r.torque.X	femur_med_meniscii_r.meniscus_med_r.torque.Y	femur_med_meniscii_r.meniscus_med_r.torque.Z	femur_med_tibia_r.tibia_upper_r.force.X	femur_med_tibia_r.tibia_upper_r.force.Y	femur_med_tibia_r.tibia_upper_r.force.Z	femur_med_tibia_r.tibia_upper_r.torque.X	femur_med_tibia_r.tibia_upper_r.torque.Y	femur_med_tibia_r.tibia_upper_r.torque.Z	femur_med_tibia_r.femur_med_r.force.X	femur_med_tibia_r.femur_med_r.force.Y	femur_med_tibia_r.femur_med_r.force.Z	femur_med_tibia_r.femur_med_r.torque.X	femur_med_tibia_r.femur_med_r.torque.Y	femur_med_tibia_r.femur_med_r.torque.Z	femur_lat_tibia_r.tibia_upper_r.force.X	femur_lat_tibia_r.tibia_upper_r.force.Y	femur_lat_tibia_r.tibia_upper_r.force.Z	femur_lat_tibia_r.tibia_upper_r.torque.X	femur_lat_tibia_r.tibia_upper_r.torque.Y	femur_lat_tibia_r.tibia_upper_r.torque.Z	femur_lat_tibia_r.femur_lat_r.force.X	femur_lat_tibia_r.femur_lat_r.force.Y	femur_lat_tibia_r.femur_lat_r.force.Z	femur_lat_tibia_r.femur_lat_r.torque.X	femur_lat_tibia_r.femur_lat_r.torque.Y	femur_lat_tibia_r.femur_lat_r.torque.Z	femur_lat_meniscii_force_r	femur_med_meniscii_force_r	femur_lat_tibia_force_r	femur_med_tibia_force_r
      0.13552851	      0.01529273	      0.01218774	     40.54865023	     90.67850911	     22.03348027	      0.00000000	      0.00000000	      0.00000000	      0.00000000	      0.00000000	      0.00000000	      0.00000000	      0.00000000	      0.00000000	      0.00000000	      0.00000001	      0.00000000	      0.03474141	      0.02691644	      0.02950522	      0.02830573	      0.05827363	      0.05940226	      0.05774404	      0.05118190	      0.04762040	      0.04333658	      0.01525851	      0.01651186	      0.06550154	      0.04489616	      0.12049178	      0.07413548	     -0.05113568	     -0.05293361	     -0.02920961	     -0.00654320	     -0.01675456	     -0.08566518	     -0.15444639	     -0.17206076	      0.00000079	     -0.32847694	      0.00000060	     -0.00000086	    -10.78312144	     66.70134870	      9.83203794	     -5.60283572	     -0.22709197	     -4.70484334	     10.78312144	    -66.70134870	     -9.83203794	      1.98644196	      0.06917617	      1.80993827	      9.27191397	     22.10090465	     -0.01645105	      0.43811611	     -0.17422326	      3.59104595	     -9.27191397	    -22.10090465	      0.01645105	     -0.37319807	      0.14996310	      0.40523175	    -35.59191251	   -542.67550906	    100.73289019	    -10.49593007	      2.83875737	     11.88019400	     35.59191251	    542.67550906	   -100.73289019	     50.79649389	     -1.02239232	     12.14444148	     42.14963609	   -547.12977540	   -120.87907838	     17.25399259	     -1.67282708	     13.64848470	    -42.14963609	    547.12977540	    120.87907838	    -62.43870613	     -0.50828942	    -19.53176457	     68.27894695	     23.96703248	    561.90687355	    553.09186176
      0.13599441	      0.01529680	      0.01225880	     40.76549776	     88.75636691	     20.17028704	      0.00000000	      0.00000000	      0.00000000	      0.00000000	      0.00000000	      0.00000000	      0.00000000	      0.00000000	      0.00000000	      0.00000000	      0.00000001	      0.00000000	      0.03472285	      0.02689380	      0.02954762	      0.02833628	      0.05829082	      0.05940134	      0.05772456	      0.05118038	      0.04760474	      0.04330789	      0.01525851	      0.01651186	      0.06550154	      0.04489616	      0.11989324	      0.07323196	     -0.04977219	     -0.05191133	     -0.02892332	     -0.00655865	     -0.01708626	     -0.08569238	     -0.15472435	     -0.17260887	      0.00000079	     -0.32847694	      0.00000060	     -0.00000086	    -11.10563047	     67.31081661	      9.81718651	     -5.60925571	     -0.23484156	     -4.84736595	     11.10563047	    -67.31081661	     -9.81718651	      1.99923969	      0.07746293	      1.84261300	      9.03766284	     21.61690304	     -0.01743552	      0.43046196	     -0.17184623	      3.49804016	     -9.03766284	    -21.61690304	      0.01743552	     -0.36667495	      0.14832198	      0.39997971	    -34.48126045	   -536.71251451	     99.95383032	    -10.36633178	      2.81438076	     11.82548354	     34.48126045	    536.71251451	    -99.95383032	     50.34745737	     -1.00457941	     11.68479748	     42.87487104	   -546.28709689	   -118.78324571	     17.14423650	     -1.62349149	     13.71864214	    -42.87487104	    546.28709689	    118.78324571	    -61.53148441	     -0.52223235	    -19.87200392	     68.92356790	     23.43011205	    560.69359392	    547.02838021
      0.13646031	      0.01529924	      0.01233038	     40.98220097	     86.93120638	     18.42446918	      0.00000000	      0.00000000	      0.00000000	      0.00000000	      0.00000000	      0.00000000	      0.00000000	      0.00000000	      0.00000000	      0.00000000	      0.00000001	      0.00000000	      0.03470316	      0.02687024	      0.02959013	      0.02836697	      0.05830744	      0.05939996	      0.05770472	      0.05117823	      0.04758841	      0.04327856	      0.01525851	      0.01651186	      0.06550154	      0.04489616	      0.11925823	      0.07229194	     -0.04840521	     -0.05088464	     -0.02864637	     -0.00658163	     -0.01742406	     -0.08573077	     -0.15501427	     -0.17316909	      0.00000079	     -0.32847694	      0.00000060	     -0.00000086	    -11.25239239	     67.84130131	      9.82872575	     -5.62528958	     -0.23869480	     -4.91548107	     11.25239239	    -67.84130131	     -9.82872575	      2.01127299	      0.08089305	      1.86718591	      9.05759609	     21.30615661	     -0.10349668	      0.46000018	     -0.17295760	      3.50777297	     -9.05759609	    -21.30615661	      0.10349668	     -0.36404767	      0.15111636	      0.39328167	    -34.28927590	   -532.09577863	     99.47064453	    -10.26437797	      2.80962475	     11.77144180	     34.28927590	    532.09577863	    -99.47064453	     50.04384602	     -1.00334957	     11.60350027	     43.56283534	   -545.72965691	   -117.01489566	     17.05238330	     -1.58155002	     13.79203672	    -43.56283534	    545.72965691	    117.01489566	    -60.76741003	     -0.53482785	    -20.19618158	     69.46698747	     23.15174006	    559.83128249	    542.39845243
      0.13692621	      0.01530033	      0.01240244	     41.19880850	     85.29619679	     16.88858816	      0.00000000	      0.00000000	      0.00000000	      0.00000000	      0.00000000	      0.00000000	      0.00000000	      0.00000000	      0.00000000	      0.00000000	      0.00000001	      0.00000000	      0.03468256	      0.02684597	      0.02963270	      0.02839775	      0.05832358	      0.05939820	      0.05768459	      0.05117556	      0.04757152	      0.04324871	      0.01525851	      0.01651186	      0.06550154	      0.04489616	      0.11859371	      0.07132348	     -0.04703591	     -0.04985463	     -0.02837760	     -0.00661109	     -0.01776683	     -0.08577858	     -0.15531418	     -0.17373934	      0.00000079	     -0.32847694	      0.00000060	     -0.00000086	    -11.41915785	     68.25102070	      9.82013002	     -5.62999411	     -0.24294245	     -4.99220322	     11.41915785	    -68.25102070	     -9.82013002	      2.01943950	      0.08515898	      1.89034916	      9.05593645	     21.07999622	     -0.20090080	      0.49575832	     -0.17302831	      3.50796306	     -9.05593645	    -21.07999622	      0.20090080	     -0.36302761	      0.15315043	      0.38936025	    -33.39199081	   -528.63420243	     99.66358532	    -10.20132365	      2.81196934	     11.76949987	     33.39199081	    528.63420243	    -99.66358532	     50.04313241	     -0.99457067	     11.21920158	     44.09868243	   -544.96854203	   -115.85239735	     16.97845462	     -1.55536308	     13.85520867	    -44.09868243	    544.96854203	    115.85239735	    -60.25527474	     -0.54340854	    -20.45573014	     69.89301786	     22.94377011	    558.88924088	    538.98235153
      0.13739210	      0.01530041	      0.01247490	     41.41538485	     83.82791474	     15.53294447	      0.00000000	      0.00000000	      0.00000000	      0.00000000	      0.00000000	      0.00000000	      0.00000000	      0.00000000	      0.00000000	      0.00000000	      0.00000001	      0.00000000	      0.03466133	      0.02682126	      0.02967532	      0.02842861	      0.05833933	      0.05939615	      0.05766427	      0.05117249	      0.04755422	      0.04321849	      0.01525851	      0.01651186	      0.06550154	      0.04489616	      0.11790894	      0.07033712	     -0.04566536	     -0.04882242	     -0.02811515	     -0.00664538	     -0.01811284	     -0.08583330	     -0.15562135	     -0.17431671	      0.00000079	     -0.32847694	      0.00000060	     -0.00000086	    -11.59473135	     68.56753168	      9.79805780	     -5.62718053	     -0.24779649	     -5.07224244	     11.59473135	    -68.56753168	     -9.79805780	      2.02505296	      0.09031563	      1.91165404	      9.11096240	     20.84146723	     -0.18594976	      0.48431407	     -0.17371278	      3.53131181	     -9.11096240	    -20.84146723	      0.18594976	     -0.35818256	      0.15350547	      0.38388213	    -33.89280842	   -525.70167109	    100.03277895	    -10.15234595	      2.83490932	     11.72975125	     33.89280842	    525.70167109	   -100.03277895	     50.12598570	     -1.00670384	     11.42175581	     43.47037769	   -544.14726278	   -115.00412509	     16.91356538	     -1.56502320	     13.87568096	    -43.47037769	    544.14726278	    115.00412509	    -59.87337616	     -0.52504615	    -20.22478962	     70.22781595	     22.74666941	    557.86366266	    536.20660786
      0.13795911	      0.01529927	      0.01256343	     41.67894740	     82.14130717	     14.01615107	      0.00000000	      0.00000000	      0.00000000	      0.00000000	      0.00000000	      0.00000000	      0.00000000	      0.00000000	      0.00000000	      0.00000000	      0.00000001	      0.00000000	      0.03463485	      0.02679077	      0.02972737	      0.02846637	      0.05835819	      0.05939346	      0.05763948	      0.05116846	      0.04753284	      0.04318144	      0.01525851	      0.01651186	      0.06550154	      0.04489616	      0.11705505	      0.06912052	     -0.04399154	     -0.04755882	     -0.02780094	     -0.00669034	     -0.01853495	     -0.08590531	     -0.15600096	     -0.17502464	      0.00000079	     -0.32847694	      0.00000060	     -0.00000086	    -11.28347360	     68.82874519	      9.77029647	     -5.62047000	     -0.23966350	     -4.94762480	     11.28347360	    -68.82874519	     -9.77029647	      2.02863036	      0.08121001	      1.91575442	      9.14851183	     20.44965434	     -0.26586233	      0.50975525	     -0.17448175	      3.54899150	     -9.14851183	    -20.44965434	      0.26586233	     -0.35404853	      0.15583359	      0.37460379	    -34.34771860	   -522.74106910	    100.66762443	    -10.10973923	      2.86458546	     11.70012787	     34.34771860	    522.74106910	   -100.66762443	     50.31711148	     -1.01926070	     11.60089423	     41.95300340	   -542.16583264	   -113.82153232	     16.80685052	     -1.59028304	     13.85081879	    -41.95300340	    542.16583264	    113.82153232	    -59.32521865	     -0.48806942	    -19.62267530	     70.42848596	     22.40433695	    555.57104478	    533.45286738
      0.13852611	      0.01529689	      0.01265213	     41.94252239	     80.46556832	     12.54672162	      0.00000000	      0.00000000	      0.00000000	      0.00000000	      0.00000000	      0.00000000	      0.00000000	      0.00000000	      0.00000000	      0.00000000	      0.00000001	      0.00000000	      0.03460788	      0.02676002	      0.02977983	      0.02850459	      0.05837696	      0.05939081	      0.05761488	      0.05116438	      0.04751140	      0.04314437	      0.01525851	      0.01651186	      0.06550154	      0.04489616	      0.11618507	      0.06789350	     -0.04230458	     -0.04628005	     -0.02748823	     -0.00673464	     -0.01895377	     -0.08597818	     -0.15638173	     -0.17573272	      0.00000079	     -0.32847694	      0.00000060	     -0.00000086	    -11.25131832	     69.00802148	      9.68134030	     -5.58577369	     -0.23758440	     -4.94084125	     11.25131832	    -69.00802148	     -9.68134030	      2.02762724	      0.08007638	      1.92839457	      9.40324639	     19.89981535	     -0.22953260	      0.48242714	     -0.18048032	      3.65761457	     -9.40324639	    -19.89981535	      0.22953260	     -0.34240354	      0.16059934	      0.35509951	    -34.57267504	   -520.40951441	    101.05368349	    -10.06749894	      2.88620492	     11.69098155	     34.57267504	    520.40951441	   -101.05368349	     50.41427981	     -1.02794671	     11.68225252	     41.31660885	   -539.68600068	   -112.88348241	     16.69593006	     -1.60226425	     13.84519182	    -41.31660885	    539.68600068	    112.88348241	    -58.86836869	     -0.46655981	    -19.38990710	     70.58631271	     22.01082413	    552.91113400	    531.25622773
